<?xml version="1.0" encoding="utf-8"?>
<!-- Generator: Adobe Illustrator 25.3.1, SVG Export Plug-In . SVG Version: 6.00 Build 0)  -->
<svg version="1.1" id="Layer_1" xmlns="http://www.w3.org/2000/svg" xmlns:xlink="http://www.w3.org/1999/xlink" x="0px" y="0px"
	 viewBox="0 0 48 32" style="enable-background:new 0 0 48 32;" xml:space="preserve">
<style type="text/css">
	.st0{fill-rule:evenodd;clip-rule:evenodd;fill:#008CFF;}
	.st1{fill-rule:evenodd;clip-rule:evenodd;fill:#FFFFFF;}
</style>
<desc>Created with Sketch.</desc>
<g id="Page-1">
	<g id="blue_venmo_acceptance_mark">
		<g id="Rectangle-115-_x2B_-Path-Copy">
			<path id="Rectangle-115" class="st0" d="M3.2,0h41.1c1.7,0,3.2,1.4,3.2,3.2v25.3c0,1.7-1.4,3.2-3.2,3.2H3.2
				c-1.7,0-3.2-1.4-3.2-3.2V3.2C0,1.4,1.4,0,3.2,0z"/>
			<path id="Path" class="st1" d="M33.2,10.1c0,4.7-3.9,10.9-7.1,15.2h-7.3L15.8,7.4l6.4-0.6l1.5,12.8c1.4-2.4,3.2-6.2,3.2-8.8
				c0-1.4-0.2-2.4-0.6-3.2l5.8-1.2C32.9,7.5,33.2,8.6,33.2,10.1z"/>
		</g>
	</g>
</g>
</svg>
